/* XPM */
static char *_fe39bcf7f874aebeb30b2ebeeac177448OkZXL21KBEXj1o[] = {
/* columns rows colors chars-per-pixel */
"64 64 2 1 ",
"  c black",
". c #FF00DC",
/* pixels */
"................................                                ",
"................................                                ",
"................................                                ",
"................................                                ",
"................................                                ",
"................................                                ",
"................................                                ",
"................................                                ",
"................................                                ",
"..........            ..........                                ",
"..........            ..........                                ",
"..........            ..........                                ",
"..........   ...................                                ",
"..........   ...................                                ",
"..........   ...................                                ",
"..........         .............                                ",
"..........         .............                                ",
"..........         .............                                ",
"..........   ...................                                ",
"..........   ...................                                ",
"..........   ...................                                ",
"..........            ..........                                ",
"..........            ..........                                ",
"..........            ..........                                ",
"................................                                ",
"................................                                ",
"................................                                ",
"................................                                ",
"................................                                ",
"................................                                ",
"................................                                ",
"................................                                ",
"                                ................................",
"                                ................................",
"                                ................................",
"                                ................................",
"                                ................................",
"                                ................................",
"                                ................................",
"                                ................................",
"                                ................................",
"                                ................................",
"                                ................................",
"                                ................................",
"                                ................................",
"                                ................................",
"                                ................................",
"                                ................................",
"                                ................................",
"                                ................................",
"                                ................................",
"                                ................................",
"                                ................................",
"                                ................................",
"                                ................................",
"                                ................................",
"                                ................................",
"                                ................................",
"                                ................................",
"                                ................................",
"                                ................................",
"                                ................................",
"                                ................................",
"                                ................................"
};
