/* XPM */
static char *_5f11f0d1cc0418eae2f9222880ae056DfOVuYPFdGaFkjmz[] = {
/* columns rows colors chars-per-pixel */
"64 64 2 1 ",
"  c black",
". c #FF00DC",
/* pixels */
"................................                                ",
"................................                                ",
"................................                                ",
"................................                                ",
"................................                                ",
"................................                                ",
"................................                                ",
"................................                                ",
"..........   ......   ..........                                ",
"..........   ......   ..........                                ",
"..........   ......   ..........                                ",
"..........      ...   ..........                                ",
"..........      ...   ..........                                ",
"..........      ...   ..........                                ",
"..........   ...      ..........                                ",
"..........   ...      ..........                                ",
"..........   ...      ..........                                ",
"..........   ......   ..........                                ",
"..........   ......   ..........                                ",
"..........   ......   ..........                                ",
"..........   ......   ..........                                ",
"..........   ......   ..........                                ",
"..........   ......   ..........                                ",
"................................                                ",
"................................                                ",
"................................                                ",
"................................                                ",
"................................                                ",
"................................                                ",
"................................                                ",
"................................                                ",
"................................                                ",
"                                ................................",
"                                ................................",
"                                ................................",
"                                ................................",
"                                ................................",
"                                ................................",
"                                ................................",
"                                ................................",
"                                ................................",
"                                ................................",
"                                ................................",
"                                ................................",
"                                ................................",
"                                ................................",
"                                ................................",
"                                ................................",
"                                ................................",
"                                ................................",
"                                ................................",
"                                ................................",
"                                ................................",
"                                ................................",
"                                ................................",
"                                ................................",
"                                ................................",
"                                ................................",
"                                ................................",
"                                ................................",
"                                ................................",
"                                ................................",
"                                ................................",
"                                ................................"
};
