/* XPM */
static char *efa618d9b539461286d1a4f791f3c6edeNaqHX7d1d5HmF6p[] = {
/* columns rows colors chars-per-pixel */
"64 64 2 1 ",
"  c black",
". c #FF00DC",
/* pixels */
"................................                                ",
"................................                                ",
"................................                                ",
"................................                                ",
"................................                                ",
"................................                                ",
"................................                                ",
"................................                                ",
"................................                                ",
".............         ..........                                ",
".............         ..........                                ",
".............         ..........                                ",
"..........   ...................                                ",
"..........   ...................                                ",
"..........   ...................                                ",
".............      .............                                ",
".............      .............                                ",
".............      .............                                ",
"...................   ..........                                ",
"...................   ..........                                ",
"...................   ..........                                ",
"..........         .............                                ",
"..........         .............                                ",
"..........         .............                                ",
"................................                                ",
"................................                                ",
"................................                                ",
"................................                                ",
"................................                                ",
"................................                                ",
"................................                                ",
"................................                                ",
"                                ................................",
"                                ................................",
"                                ................................",
"                                ................................",
"                                ................................",
"                                ................................",
"                                ................................",
"                                ................................",
"                                ................................",
"                                ................................",
"                                ................................",
"                                ................................",
"                                ................................",
"                                ................................",
"                                ................................",
"                                ................................",
"                                ................................",
"                                ................................",
"                                ................................",
"                                ................................",
"                                ................................",
"                                ................................",
"                                ................................",
"                                ................................",
"                                ................................",
"                                ................................",
"                                ................................",
"                                ................................",
"                                ................................",
"                                ................................",
"                                ................................",
"                                ................................"
};
