/* XPM */
static char *deb4e7d8348a40148a57c9cc3ec7c8a2UHedR81JidTIILRn[] = {
/* columns rows colors chars-per-pixel */
"64 64 2 1 ",
"  c black",
". c #FF00DC",
/* pixels */
"................................                                ",
"................................                                ",
"................................                                ",
"................................                                ",
"................................                                ",
"................................                                ",
"................................                                ",
"................................                                ",
"................................                                ",
"........   .........   .........                                ",
"........   .........   .........                                ",
"........   .........   .........                                ",
"........   .........   .........                                ",
"........   .........   .........                                ",
"........   .........   .........                                ",
"........   ...   ...   .........                                ",
"........   ...   ...   .........                                ",
"........   ...   ...   .........                                ",
"........      ...      .........                                ",
"........      ...      .........                                ",
"........      ...      .........                                ",
"........   .........   .........                                ",
"........   .........   .........                                ",
"........   .........   .........                                ",
"................................                                ",
"................................                                ",
"................................                                ",
"................................                                ",
"................................                                ",
"................................                                ",
"................................                                ",
"................................                                ",
"                                ................................",
"                                ................................",
"                                ................................",
"                                ................................",
"                                ................................",
"                                ................................",
"                                ................................",
"                                ................................",
"                                ................................",
"                                ................................",
"                                ................................",
"                                ................................",
"                                ................................",
"                                ................................",
"                                ................................",
"                                ................................",
"                                ................................",
"                                ................................",
"                                ................................",
"                                ................................",
"                                ................................",
"                                ................................",
"                                ................................",
"                                ................................",
"                                ................................",
"                                ................................",
"                                ................................",
"                                ................................",
"                                ................................",
"                                ................................",
"                                ................................",
"                                ................................"
};
